<svg width="142" height="36" viewBox="0 0 142 36" fill="none" xmlns="http://www.w3.org/2000/svg">
<path fill-rule="evenodd" clip-rule="evenodd" d="M65.2609 34.6834H73.6786V1.10327H65.2609V34.6834Z" fill="white"/>
<path fill-rule="evenodd" clip-rule="evenodd" d="M94.6158 27.5842C99.9648 27.5842 103.895 23.0011 103.895 17.8563C103.895 12.7111 99.9428 8.17159 94.6158 8.17159C89.2668 8.17159 85.3151 12.7111 85.3151 17.8563C85.3151 23.0011 89.2668 27.5842 94.6158 27.5842ZM94.6813 0C104.768 0 112.89 7.73919 112.89 17.7915C112.89 27.8869 104.702 35.7771 94.5938 35.7771C84.4853 35.7771 76.2982 27.9951 76.2982 17.9212C76.2982 7.86873 84.5948 0 94.6813 0ZM113.858 24.501L121.581 22.6841C122.136 26.719 125.102 28.1768 128.217 28.1768C131.31 28.1768 132.441 26.3599 132.441 24.9445C132.441 23.8037 131.78 22.6841 129.518 22.2406L124.803 21.332C119.17 20.2548 115.181 16.7478 115.181 11.3608C115.181 4.93882 121.09 0.417956 127.769 0.417956C136.367 0.417956 139.908 5.74162 140.527 10.1992L132.953 12.3116C132.548 9.56522 130.841 7.57965 127.726 7.57965C125.038 7.57965 123.758 9.35413 123.758 10.706C123.758 11.8256 124.291 13.1144 126.296 13.4946L131.204 14.424C137.626 15.6495 141.146 19.5364 141.146 24.5854C141.146 30.0782 136.367 35.3594 128.174 35.3594C119.597 35.3594 114.989 30.9019 113.858 24.501Z" fill="white"/>
<path fill-rule="evenodd" clip-rule="evenodd" d="M9.05905 34.6834H0L14.9797 1.10327H24.0821L9.05905 34.6834Z" fill="#0A99E0"/>
<path fill-rule="evenodd" clip-rule="evenodd" d="M51.9868 17.4652L63.2386 1.03491H52.9438L46.8752 10.9812L40.947 1.03491H30.5128L41.9115 17.4652L35.5688 26.673L24.1419 1.05469H15.0385L30.0626 34.6357H39.7781L46.8752 23.9905L53.8885 34.6357H63.7105L51.9868 17.4652Z" fill="white"/>
</svg>
