<svg width="72" height="70" viewBox="0 0 72 70" fill="none" xmlns="http://www.w3.org/2000/svg">
<g clip-path="url(#clip0_24_2)">
<path d="M35.8395 0C16.0484 0 0 16.0456 0 35.8395C0 51.6746 10.2691 65.1086 24.5093 69.8477C26.3004 70.1794 26.9581 69.0702 26.9581 68.1235C26.9581 67.269 26.9247 64.4456 26.9095 61.4509C16.9386 63.6189 14.8347 57.2223 14.8347 57.2223C13.2044 53.0797 10.8554 51.9784 10.8554 51.9784C7.60386 49.7539 11.1005 49.7995 11.1005 49.7995C14.6995 50.0524 16.5946 53.4929 16.5946 53.4929C19.791 58.972 24.9787 57.3879 27.0239 56.4724C27.3454 54.1557 28.2744 52.5749 29.2992 51.6799C21.339 50.7734 12.9706 47.7003 12.9706 33.9677C12.9706 30.0551 14.3706 26.8578 16.6634 24.348C16.2913 23.4451 15.0646 19.8 17.0106 14.8634C17.0106 14.8634 20.0201 13.9001 26.869 18.5371C29.7276 17.7428 32.7937 17.3448 35.8395 17.3313C38.8853 17.3448 41.9536 17.7428 44.8178 18.5371C51.6586 13.9001 54.6639 14.8634 54.6639 14.8634C56.6146 19.8 55.3874 23.4451 55.0152 24.348C57.3131 26.8578 58.7036 30.0548 58.7036 33.9677C58.7036 47.7329 50.3195 50.7641 42.339 51.6512C43.6244 52.7635 44.7698 54.9447 44.7698 58.2882C44.7698 63.0834 44.7282 66.943 44.7282 68.1235C44.7282 69.0773 45.3733 70.1948 47.1902 69.8429C61.4225 65.0985 71.6787 51.6692 71.6787 35.8395C71.6787 16.0456 55.6325 0 35.8395 0Z" fill="white"/>
<path d="M13.4231 51.0543C13.3444 51.2322 13.0639 51.2856 12.8089 51.1636C12.5489 51.0467 12.4028 50.8038 12.4871 50.6251C12.5644 50.4418 12.8449 50.3906 13.1044 50.5138C13.3649 50.6304 13.5133 50.8755 13.4231 51.0543ZM15.1861 52.6272C15.0152 52.7857 14.681 52.7121 14.4541 52.4617C14.2197 52.2118 14.1759 51.8778 14.3493 51.7168C14.5255 51.5585 14.8496 51.6325 15.0846 51.8826C15.319 52.1353 15.3646 52.4673 15.1858 52.6275L15.1861 52.6272ZM16.3956 54.6398C16.1758 54.7924 15.8165 54.6493 15.5948 54.3306C15.3752 54.0121 15.3752 53.6298 15.5995 53.4766C15.8222 53.3235 16.1758 53.4612 16.4006 53.7774C16.6199 54.1015 16.6199 54.4838 16.3953 54.6401L16.3956 54.6398ZM18.4407 56.9708C18.2443 57.1872 17.826 57.1293 17.5196 56.8336C17.2065 56.5447 17.1191 56.1346 17.3161 55.9179C17.5148 55.7009 17.9356 55.7619 18.2443 56.055C18.5554 56.3434 18.6504 56.7566 18.441 56.9708H18.4407ZM21.084 57.7578C20.9978 58.0383 20.5947 58.166 20.1888 58.0468C19.7835 57.9239 19.5181 57.5951 19.5999 57.3115C19.6842 57.029 20.089 56.896 20.498 57.0236C20.9027 57.1459 21.1686 57.4722 21.0843 57.7578H21.084ZM24.0928 58.0915C24.1029 58.3872 23.7586 58.6323 23.3324 58.6376C22.9038 58.6469 22.5572 58.4077 22.5527 58.117C22.5527 57.8185 22.8892 57.5757 23.3175 57.5687C23.7437 57.5602 24.0928 57.7977 24.0928 58.0915ZM27.0481 57.9782C27.0992 58.2666 26.803 58.5628 26.3799 58.6415C25.9639 58.7174 25.5788 58.5395 25.5257 58.2537C25.474 57.958 25.7759 57.662 26.1911 57.5852C26.6149 57.5116 26.9941 57.685 27.0481 57.9782Z" fill="#161614"/>
</g>
<defs>
<clipPath id="clip0_24_2">
<rect width="71.9572" height="70" fill="white"/>
</clipPath>
</defs>
</svg>
