<svg width="70" height="70" viewBox="0 0 70 70" fill="none" xmlns="http://www.w3.org/2000/svg">
<path d="M0 0H70V70H0V0Z" fill="#F0DB4F"/>
<path d="M64.2707 53.3053C63.7583 50.1113 61.6756 47.4298 55.5074 44.9279C53.3648 43.9431 50.976 43.2378 50.264 41.6142C50.0112 40.6693 49.9779 40.137 50.1376 39.5647C50.5967 37.7083 52.8125 37.1294 54.5692 37.6617C55.7003 38.041 56.7716 38.9127 57.4171 40.3033C60.438 38.3471 60.4313 38.3604 62.5406 37.0163C61.7688 35.8186 61.3562 35.2662 60.8505 34.7539C59.034 32.7245 56.5587 31.6798 52.5996 31.7596C51.9142 31.8461 51.2223 31.9392 50.5368 32.0258C48.5607 32.5248 46.6775 33.5629 45.573 34.9536C42.2593 38.7131 43.2041 45.2938 47.2365 48.0021C51.2089 50.9831 57.0444 51.6618 57.7897 54.4498C58.515 57.8633 55.2812 58.9678 52.0673 58.5753C49.6984 58.0829 48.381 56.8785 46.957 54.6894C44.3354 56.2065 44.3354 56.2065 41.6405 57.7569C42.2793 59.1542 42.9513 59.7864 44.0226 60.9974C49.093 66.1409 61.7821 65.8881 64.0578 58.1029C64.1509 57.8367 64.7631 56.0534 64.2707 53.3053ZM38.0539 32.1721H31.5064C31.5064 37.828 31.4799 43.444 31.4799 49.0999C31.4799 52.6998 31.6662 56.0001 31.0806 57.0116C30.1225 59.001 27.6405 58.7549 26.5093 58.3689C25.3582 57.8033 24.7726 56.9982 24.0939 55.8604C23.9076 55.5344 23.7679 55.2815 23.7212 55.2616C21.9447 56.3462 20.1747 57.4373 18.3981 58.522C19.2831 60.3386 20.5872 61.9156 22.2574 62.9402C24.7526 64.4374 28.1062 64.8965 31.613 64.0914C33.8953 63.426 35.8648 62.0487 36.8962 59.9526C38.3866 57.2045 38.0673 53.8775 38.0539 50.1978C38.0872 44.1959 38.0539 38.194 38.0539 32.1721Z" fill="#323330"/>
</svg>
