<svg width="70" height="70" viewBox="0 0 70 70" fill="none" xmlns="http://www.w3.org/2000/svg">
<path d="M32.2146 9.10071L33.7316 11.95C34.0727 12.4758 34.4422 12.9412 34.8774 13.3747C36.1533 14.6347 37.3427 15.9795 38.4373 17.3999C41.0077 20.775 42.7414 24.5232 43.9796 28.5768C44.7221 31.0531 45.1253 33.5933 45.1555 36.1619C45.2799 43.8412 42.6473 50.4351 37.3395 55.9152C36.4761 56.7842 35.5434 57.5815 34.5505 58.2991C34.0247 58.2991 33.776 57.8958 33.5593 57.5246C33.1647 56.8361 32.902 56.0801 32.7848 55.2952C32.5983 54.3662 32.4757 53.4371 32.5361 52.4779V52.0445C32.4935 51.9521 32.0299 9.3192 32.2146 9.10071Z" fill="#599636"/>
<path d="M32.2144 9.00642C32.1522 8.88208 32.09 8.97623 32.0279 9.03662C32.0581 9.65835 31.8414 10.2126 31.5021 10.7419C31.129 11.2677 30.6352 11.671 30.1396 12.1044C27.3862 14.4883 25.219 17.3678 23.4835 20.5883C21.1742 24.9227 19.984 29.5679 19.6465 34.4582C19.4919 36.2221 20.2043 42.4465 20.7603 44.2424C22.2773 49.0102 25.0023 53.0052 28.5319 56.4727C29.3988 57.3076 30.3261 58.0821 31.2853 58.8264C31.5642 58.8264 31.5944 58.5777 31.6584 58.393C31.7807 57.9976 31.8739 57.5939 31.9373 57.185L32.559 52.5416L32.2144 9.00642Z" fill="#6CAC48"/>
<path d="M33.7316 60.1855C33.7938 59.4749 34.1349 58.8852 34.5061 58.2972C34.1331 58.1427 33.856 57.8353 33.6393 57.4925C33.4524 57.1679 33.2977 56.8258 33.1774 56.4711C32.744 55.1708 32.6516 53.8065 32.5272 52.4778V51.6731C32.3727 51.7974 32.3407 52.8491 32.3407 53.0054C32.2503 54.4097 32.064 55.8063 31.7829 57.1852C31.6906 57.743 31.6284 58.299 31.2856 58.7946C31.2856 58.8568 31.2856 58.9189 31.3158 59.0113C31.8735 60.6527 32.0263 62.3242 32.1205 64.0278V64.6495C32.1205 65.392 32.0903 65.2357 32.7067 65.4844C32.9554 65.5768 33.2325 65.6088 33.4812 65.7935C33.6677 65.7935 33.6979 65.639 33.6979 65.5146L33.6055 64.4932V61.6439C33.5753 61.1465 33.6677 60.6527 33.7299 60.1873L33.7316 60.1855Z" fill="#C2BFBF"/>
</svg>
