<svg width="155" height="44" viewBox="0 0 155 44" fill="none" xmlns="http://www.w3.org/2000/svg">
<path d="M142.602 15.6614C142.225 15.6614 141.859 15.7394 141.534 15.9233L131.275 21.8617C130.612 22.2453 130.208 22.9693 130.208 23.7398V35.5952C130.208 36.365 130.612 37.0882 131.275 37.4726L133.955 39.023C135.256 39.666 135.736 39.6559 136.329 39.6559C138.256 39.6559 139.356 38.4837 139.356 36.4467V24.7439C139.356 24.5785 139.213 24.4602 139.051 24.4602H137.766C137.602 24.4602 137.462 24.5785 137.462 24.7439V36.4467C137.462 37.3494 136.523 38.2577 135 37.4945L132.212 35.8571C132.113 35.8034 132.038 35.7084 132.038 35.5952V23.7395C132.038 23.6272 132.113 23.5128 132.212 23.4557L142.449 17.5394C142.496 17.5123 142.548 17.4981 142.602 17.4981C142.655 17.4981 142.708 17.5123 142.754 17.5394L152.992 23.4561C153.089 23.5149 153.166 23.6239 153.166 23.7401V35.5955C153.166 35.7087 153.109 35.8246 153.013 35.8792L142.754 41.7959C142.666 41.8484 142.545 41.8484 142.449 41.7959L139.814 40.224C139.774 40.2022 139.729 40.1908 139.683 40.1908C139.637 40.1908 139.593 40.2022 139.552 40.224C138.825 40.6373 138.688 40.6852 138.006 40.9225C137.838 40.9814 137.583 41.0727 138.093 41.3595L141.534 43.3896C141.859 43.5772 142.227 43.6752 142.602 43.6736C142.976 43.6759 143.345 43.578 143.669 43.3899L153.928 37.4729C154.592 37.086 154.995 36.3653 154.995 35.5955V23.7398C154.995 22.9696 154.592 22.2468 153.928 21.8623L143.669 15.9239C143.347 15.7397 142.979 15.6617 142.602 15.6617L142.602 15.6614Z" fill="#83CD29"/>
<path d="M145.346 24.1327C142.425 24.1327 140.685 25.379 140.685 27.4515C140.685 29.6994 142.412 30.3173 145.216 30.5952C148.57 30.9245 148.831 31.4182 148.831 32.08C148.831 33.2279 147.918 33.7174 145.76 33.7174C143.049 33.7174 142.453 33.0389 142.254 31.687C142.23 31.542 142.118 31.4249 141.97 31.4249H140.642C140.478 31.4249 140.337 31.5663 140.337 31.7307C140.337 33.4613 141.276 35.5078 145.76 35.5078C149.007 35.5078 150.879 34.2305 150.879 31.9926C150.879 29.7744 149.367 29.1787 146.218 28.7615C143.036 28.3394 142.732 28.1327 142.732 27.386C142.732 26.7694 142.99 25.9446 145.346 25.9446C147.452 25.9446 148.23 26.3998 148.548 27.8226C148.576 27.9561 148.694 28.0626 148.831 28.0626H150.16C150.242 28.0626 150.321 28.0123 150.378 27.9534C150.434 27.8906 150.473 27.8199 150.465 27.7352C150.259 25.2852 148.629 24.1327 145.346 24.1327Z" fill="#83CD29"/>
<path d="M82.2885 0.116352C82.1738 0.116428 82.0611 0.146443 81.9615 0.203442C81.8626 0.261482 81.7804 0.344363 81.7231 0.443919C81.6659 0.543475 81.6355 0.65627 81.6349 0.771193V17.4736C81.6349 17.6375 81.5589 17.7843 81.4172 17.8666C81.3478 17.9071 81.2689 17.9285 81.1885 17.9285C81.1082 17.9285 81.0293 17.9071 80.9598 17.8666L78.237 16.2947C78.0384 16.1795 77.8131 16.1189 77.5836 16.1189C77.3542 16.1189 77.1288 16.1795 76.9302 16.2947L66.0612 22.5825C65.655 22.8176 65.4079 23.2695 65.4079 23.7398V36.3156C65.4079 36.7854 65.6553 37.2156 66.0612 37.4508L76.9302 43.7389C77.1287 43.8544 77.3541 43.9152 77.5836 43.9152C77.8131 43.9152 78.0385 43.8544 78.237 43.7389L89.106 37.4508C89.305 37.336 89.4702 37.1706 89.585 36.9712C89.6997 36.7719 89.76 36.5458 89.7596 36.3156V4.96333C89.7593 4.7278 89.6966 4.49656 89.578 4.29323C89.4594 4.0899 89.2891 3.92176 89.0845 3.80598L82.6151 0.181593C82.5137 0.124848 82.4011 0.114835 82.2885 0.116352ZM12.3698 15.8143C12.1627 15.8225 11.9678 15.8589 11.7819 15.967L0.912637 22.255C0.713535 22.3697 0.54823 22.5351 0.433495 22.7345C0.31876 22.9338 0.258678 23.1601 0.259344 23.3902L0.28114 40.2677C0.28114 40.5023 0.40193 40.7205 0.607787 40.8352C0.70648 40.8946 0.819447 40.926 0.934585 40.926C1.04972 40.926 1.16269 40.8946 1.26138 40.8352L7.70864 37.1237C8.11703 36.8803 8.38373 36.4573 8.38373 35.9882V28.1064C8.38373 27.6361 8.63046 27.2046 9.03733 26.9709L11.7816 25.3772C11.98 25.2616 12.2057 25.2012 12.4352 25.2024C12.6592 25.2024 12.8893 25.2586 13.0885 25.3772L15.833 26.9709C16.0323 27.0855 16.1978 27.2509 16.3126 27.4503C16.4274 27.6498 16.4874 27.8762 16.4866 28.1064V35.9879C16.4866 36.457 16.7561 36.8831 17.1617 37.1234L23.609 40.8352C23.7077 40.8946 23.8206 40.926 23.9358 40.926C24.0509 40.926 24.1639 40.8946 24.2626 40.8352C24.3619 40.7775 24.4444 40.6948 24.5018 40.5951C24.5592 40.4955 24.5894 40.3825 24.5895 40.2674L24.6107 23.3902C24.612 23.1599 24.5522 22.9335 24.4374 22.734C24.3226 22.5345 24.1569 22.3692 23.9574 22.255L13.0885 15.967C12.9047 15.8589 12.7091 15.8228 12.5006 15.8143H12.3698ZM110.038 15.967C109.811 15.967 109.588 16.0246 109.385 16.1418L98.5158 22.4298C98.3167 22.5446 98.1515 22.71 98.0367 22.9093C97.9219 23.1087 97.8617 23.3349 97.8622 23.565V36.1408C97.8622 36.6139 98.128 37.0424 98.5373 37.2763L109.319 43.4333C109.717 43.6609 110.204 43.6782 110.604 43.4545L117.139 39.8086C117.346 39.6933 117.486 39.4778 117.487 39.2412C117.488 39.1259 117.459 39.0125 117.401 38.9126C117.344 38.8128 117.261 38.7302 117.161 38.6734L106.226 32.3853C106.022 32.2682 105.878 32.0312 105.878 31.7957V27.8661C105.878 27.6309 106.023 27.4155 106.226 27.2983L109.624 25.3332C109.724 25.2756 109.836 25.2452 109.951 25.2452C110.066 25.2452 110.178 25.2756 110.278 25.3332L113.675 27.2983C113.775 27.3557 113.858 27.4383 113.915 27.538C113.972 27.6376 114.002 27.7507 114.002 27.8658V30.9661C114.002 31.0812 114.032 31.1943 114.089 31.2939C114.147 31.3936 114.229 31.4763 114.329 31.5336C114.533 31.6516 114.779 31.6519 114.982 31.5336L121.495 27.7353C121.694 27.6201 121.859 27.4545 121.974 27.2552C122.088 27.0559 122.149 26.8299 122.149 26.5998V23.5653C122.149 23.0965 121.901 22.6653 121.495 22.4298L110.692 16.1418C110.493 16.0266 110.267 15.9664 110.038 15.9673V15.967ZM77.5399 25.3554C77.5968 25.3554 77.6634 25.3693 77.7142 25.3988L81.439 27.5602C81.5402 27.6188 81.6134 27.7271 81.6134 27.8439V32.1669C81.6134 32.2843 81.5408 32.3923 81.439 32.4509L77.7142 34.6124C77.6645 34.6408 77.6082 34.6558 77.5509 34.6558C77.4936 34.6558 77.4373 34.6408 77.3876 34.6124L73.6631 32.4509C73.5617 32.392 73.4887 32.2843 73.4887 32.1669V27.8439C73.4887 27.7268 73.562 27.6194 73.6631 27.5602L77.3876 25.3991C77.4334 25.3705 77.4863 25.3555 77.5402 25.3557V25.3554H77.5399Z" fill="#404137"/>
<path d="M45.0203 15.9012C44.7939 15.9012 44.5699 15.9589 44.367 16.076L33.4981 22.3422C33.0915 22.5768 32.8445 23.0296 32.8445 23.4993V36.0751C32.8445 36.5454 33.0918 36.9751 33.4981 37.2106L44.367 43.4983C44.5655 43.6139 44.7909 43.6748 45.0205 43.6748C45.25 43.6748 45.4754 43.6139 45.6739 43.4983L56.5429 37.2106C56.7419 37.0957 56.907 36.9302 57.0218 36.7309C57.1365 36.5315 57.1966 36.3053 57.1962 36.0751V23.4993C57.1962 23.0289 56.9491 22.5768 56.5429 22.3422L45.6739 16.076C45.4752 15.961 45.2498 15.9007 45.0203 15.9012ZM110.016 27.1237C109.973 27.1237 109.925 27.1237 109.886 27.1455L107.795 28.3681C107.756 28.3898 107.723 28.4215 107.7 28.4598C107.677 28.4982 107.665 28.5419 107.664 28.5866V30.9881C107.664 31.0785 107.716 31.1614 107.795 31.2066L109.886 32.4073C109.964 32.4528 110.048 32.4528 110.125 32.4073L112.216 31.2063C112.255 31.1844 112.288 31.1528 112.311 31.1146C112.334 31.0763 112.346 31.0327 112.347 30.9881V28.5863C112.346 28.5417 112.334 28.4981 112.311 28.4598C112.288 28.4216 112.255 28.3899 112.216 28.3681L110.125 27.1452C110.087 27.1225 110.06 27.124 110.016 27.124V27.1237Z" fill="#83CD29"/>
</svg>
