<svg width="74" height="70" viewBox="0 0 74 70" fill="none" xmlns="http://www.w3.org/2000/svg">
<g clip-path="url(#clip0_24_41)">
<path d="M50.8841 48.6929C53.5941 48.4123 55.65 46.0761 55.5565 43.2723C55.4633 40.4688 53.1268 38.2258 50.3233 38.2258H50.1365C47.2392 38.3193 44.9965 40.7491 45.0901 43.6461C45.1836 45.048 45.7441 46.2629 46.5852 47.1039C43.4079 53.3656 38.5484 57.9448 31.2593 61.7764C26.3063 64.3931 21.1666 65.3277 16.0268 64.6737C11.8214 64.1129 8.55063 62.244 6.4944 59.1596C3.50415 54.5804 3.22388 49.6272 5.74713 44.6742C7.52281 41.1229 10.326 38.5061 12.1017 37.1977C11.7279 35.9828 11.1671 33.9269 10.8868 32.4318C-2.66369 42.2445 -1.26179 55.515 2.8501 61.7764C5.93387 66.4494 12.1952 69.3464 19.1106 69.3464C20.9795 69.3464 22.8484 69.1594 24.7176 68.6924C36.6795 66.3559 45.7444 59.2531 50.8841 48.6929V48.6929ZM67.3317 37.1045C60.2292 28.7869 49.7628 24.2077 37.8009 24.2077H36.3057C35.4647 22.5255 33.689 21.4039 31.7266 21.4039H31.5395C28.6428 21.4974 26.4001 23.9272 26.4933 26.8245C26.5868 29.628 28.923 31.871 31.7266 31.871H31.9133C33.9692 31.7774 35.7449 30.4691 36.4925 28.6934H38.1747C45.2771 28.6934 52.0055 30.7493 58.0801 34.768C62.7525 37.852 66.1168 41.8707 67.9857 46.7302C69.5744 50.6553 69.4808 54.4869 67.7987 57.758C65.1822 62.711 60.79 65.4213 54.996 65.4213C51.2579 65.4213 47.7068 64.2996 45.8376 63.4585C44.8098 64.3931 42.9406 65.8883 41.6322 66.8232C45.6509 68.6921 49.7628 69.7202 53.6876 69.7202C62.659 69.7202 69.2941 64.7669 71.8173 59.814C74.5273 54.3934 74.3403 45.048 67.3317 37.1045V37.1045ZM19.8582 50.2812C19.9517 53.085 22.2879 55.3277 25.0914 55.3277H25.2785C28.1755 55.2345 30.4182 52.8045 30.3247 49.9074C30.2314 47.1036 27.8949 44.861 25.0914 44.861H24.9047C24.7176 44.861 24.4371 44.861 24.2506 44.9542C20.419 38.5993 18.8304 31.6839 19.3912 24.2074C19.7647 18.6001 21.6339 13.7404 24.9047 9.72172C27.6147 6.26387 32.8479 4.58171 36.3993 4.48848C46.3049 4.30144 50.51 16.6374 50.7906 21.5907C52.0054 21.8709 54.0614 22.5253 55.4633 22.9926C54.3417 7.85309 44.9965 0.00280762 36.0255 0.00280762C27.6147 0.00280762 19.8582 6.07741 16.7741 15.049C12.4755 27.0112 15.279 38.5061 20.5122 47.5712C20.0452 48.2253 19.7647 49.2534 19.8582 50.2815V50.2812Z" fill="#764ABC"/>
</g>
<defs>
<clipPath id="clip0_24_41">
<rect width="73.4368" height="70" fill="white"/>
</clipPath>
</defs>
</svg>
