<svg width="94" height="70" viewBox="0 0 94 70" fill="none" xmlns="http://www.w3.org/2000/svg">
<g clip-path="url(#clip0_24_23)">
<path d="M80.3174 40.2136C77.0544 40.232 74.2289 41.0157 71.8591 42.1826C70.9841 40.4508 70.1091 38.9376 69.9634 37.8076C69.7994 36.4951 69.5988 35.6928 69.7994 34.1253C69.9997 32.5574 70.9111 30.3334 70.9111 30.1511C70.8927 29.9871 70.7104 29.185 68.833 29.1667C66.9556 29.1485 65.333 29.5313 65.1507 30.0235C64.9684 30.5157 64.6039 31.6459 64.3669 32.8126C64.0388 34.5261 60.6117 40.5964 58.6611 43.7865C58.0231 42.547 57.4763 41.4532 57.3667 40.578C57.2028 39.2657 57.0021 38.4634 57.2028 36.8959C57.4033 35.328 58.3148 33.1042 58.3148 32.922C58.2966 32.7579 58.1143 31.9558 56.2369 31.9376C54.3591 31.9194 52.7369 32.3022 52.5546 32.7943C52.3723 33.2865 52.1718 34.4532 51.7707 35.5834C51.3877 36.7136 46.8304 46.849 45.6455 49.4923C45.044 50.8412 44.5155 51.9167 44.1325 52.6459C43.7497 53.3751 44.1143 52.7006 44.0778 52.7735C43.7497 53.3933 43.5674 53.7397 43.5674 53.7397V53.7581C43.3122 54.2138 43.0388 54.6511 42.911 54.6511C42.8198 54.6511 42.6375 53.4298 42.9474 51.7529C43.6219 48.2345 45.2625 42.7477 45.2445 42.5471C45.2445 42.456 45.5542 41.4897 44.187 40.9977C42.8563 40.5055 42.3825 41.3258 42.2729 41.3258C42.1636 41.3258 42.0724 41.6175 42.0724 41.6175C42.0724 41.6175 43.549 35.4379 39.2469 35.4379C36.549 35.4379 32.8302 38.3728 30.9891 41.0525C29.8224 41.6905 27.3433 43.0393 24.7183 44.4796C23.7157 45.0265 22.6766 45.6098 21.6922 46.1385L21.4919 45.9193C16.2783 40.3595 6.63511 36.422 7.03615 28.948C7.18198 26.2319 8.1299 19.0678 25.5572 10.3907C39.8306 3.28133 51.2603 5.23185 53.2471 9.5704C56.0726 15.7683 47.1403 27.2891 32.302 28.948C26.6509 29.586 23.6794 27.3985 22.9322 26.5782C22.1483 25.7214 22.0389 25.685 21.7473 25.849C21.2733 26.1042 21.565 26.8699 21.7473 27.3256C22.1848 28.474 24.0077 30.5157 27.1066 31.5365C29.8226 32.4298 36.4582 32.922 44.479 29.823C53.466 26.3412 60.4843 16.6798 58.4244 8.60425C56.328 0.382897 42.6926 -2.31502 29.8046 2.2605C22.1299 4.99488 13.8174 9.2605 7.83823 14.8569C0.728859 21.4923 -0.40135 27.2891 0.0726086 29.6954C1.73164 38.2813 13.5622 43.8777 18.3018 48.0157C18.0648 48.1431 17.846 48.2707 17.6455 48.3803C15.2757 49.5468 6.2523 54.2683 3.99188 59.2629C1.4398 64.914 4.39292 68.9792 6.36167 69.5261C12.4502 71.2214 18.6846 68.1772 22.057 63.1641C25.411 58.1511 25.0101 51.6433 23.4606 48.672L23.4058 48.5626L25.2651 47.4688C26.4684 46.7579 27.6533 46.1016 28.6922 45.5364C28.1091 47.1223 27.6896 48.9999 27.471 51.7343C27.2158 54.9428 28.5283 59.0989 30.2601 60.7395C31.0257 61.4502 31.9372 61.4687 32.5023 61.4687C34.5075 61.4687 35.419 59.8096 36.4216 57.8228C37.6612 55.3983 38.7549 52.591 38.7549 52.591C38.7549 52.591 37.3877 60.1926 41.1247 60.1926C42.4919 60.1926 43.8591 58.4244 44.4789 57.5129V57.5312C44.4789 57.5312 44.5153 57.4765 44.5882 57.3489C44.6647 57.2358 44.7377 57.1203 44.807 57.0027V56.9662C45.3539 56.0183 46.5752 53.849 48.3981 50.2579C50.7495 45.6277 53.0101 39.8308 53.0101 39.8308C53.0101 39.8308 53.2289 41.2527 53.9033 43.586C54.3042 44.9716 55.1792 46.4845 55.8537 47.961C55.3068 48.7266 54.9787 49.1643 54.9787 49.1643L54.9969 49.1826C54.5596 49.7659 54.0672 50.3859 53.557 51.0055C51.6976 53.2294 49.4736 55.7635 49.182 56.4926C48.8356 57.3492 48.9085 57.9872 49.583 58.4978C50.0752 58.8624 50.9502 58.9352 51.8799 58.8624C53.557 58.7529 54.7237 58.3338 55.307 58.0784C56.2184 57.7503 57.2575 57.2581 58.2601 56.5289C60.083 55.1801 61.195 53.2661 61.0856 50.714C61.0309 49.3103 60.5752 47.9249 60.0101 46.6124C60.1742 46.3754 60.3384 46.1383 60.5023 45.8833C63.3825 41.6721 65.6065 37.0421 65.6065 37.0421C65.6065 37.0421 65.8252 38.464 66.4997 40.7973C66.8459 41.9822 67.5388 43.2767 68.1585 44.5527C65.4606 46.7584 63.7653 49.3105 63.182 50.9876C62.1065 54.0866 62.945 55.4902 64.5309 55.8183C65.2417 55.9642 66.2627 55.636 67.0282 55.3079C67.9761 54.998 69.1245 54.4692 70.182 53.6855C72.0049 52.3366 73.7549 50.459 73.6638 47.9251C73.6091 46.7584 73.2992 45.61 72.8799 44.5163C75.1768 43.5683 78.1479 43.0215 81.9216 43.4772C90.0335 44.4251 91.6377 49.4928 91.328 51.6074C91.0181 53.7222 89.3228 54.8886 88.7575 55.2532C88.1924 55.5996 88.0101 55.7274 88.0648 55.9824C88.1377 56.3654 88.3929 56.347 88.8851 56.2743C89.5596 56.1647 93.1507 54.5425 93.2966 50.6416C93.5153 45.6279 88.7575 40.1591 80.3174 40.2136ZM17.7549 61.3048C15.0752 64.2397 11.3018 65.3516 9.69761 64.4037C7.96584 63.4011 8.64013 59.0808 11.9398 55.9636C13.945 54.0678 16.5518 52.3178 18.2653 51.2423C18.6481 51.0053 19.2315 50.6591 19.9242 50.2397C20.0335 50.1669 20.1065 50.1303 20.1065 50.1303C20.2341 50.0574 20.3799 49.9662 20.5257 49.8751C21.7471 54.323 20.5804 58.224 17.7549 61.3048ZM37.3513 47.9793C36.4216 50.2579 34.4528 56.1095 33.2679 55.7813C32.2469 55.5079 31.6273 51.0782 33.0672 46.7032C33.7964 44.4973 35.3459 41.8725 36.2573 40.8515C37.7341 39.2108 39.3381 38.664 39.7393 39.3384C40.2132 40.2136 37.9346 46.5574 37.3513 47.9793ZM53.5205 55.7084C53.1195 55.9091 52.7549 56.0548 52.5908 55.9456C52.4632 55.8727 52.7547 55.5992 52.7547 55.5992C52.7547 55.5992 54.7782 53.43 55.5802 52.4274C56.036 51.8442 56.5828 51.1697 57.1662 50.4039V50.6227C57.1664 53.2475 54.6507 54.9975 53.5205 55.7084ZM65.9891 52.8647C65.6974 52.6459 65.7341 51.9714 66.7183 49.8569C67.1013 49.0183 67.9761 47.6147 69.4891 46.2839C69.6714 46.8308 69.7809 47.3593 69.7625 47.8516C69.7445 51.1329 67.4111 52.3542 65.9891 52.8647Z" fill="#CF649A"/>
</g>
<defs>
<clipPath id="clip0_24_23">
<rect width="93.3333" height="70" fill="white"/>
</clipPath>
</defs>
</svg>
